<svg width="280" height="213" viewBox="0 0 280 213" fill="none" xmlns="http://www.w3.org/2000/svg">
<path d="M112.671 101.068C112.328 99.8727 112.093 98.3814 111.967 96.5938C111.841 94.8063 111.829 92.973 111.933 91.0939C112.096 89.1643 112.308 87.3221 112.567 85.5672C112.882 83.8171 113.281 82.3794 113.765 81.2544C114.675 80.9982 115.577 80.5193 116.469 79.8174C117.366 79.0605 118.165 77.8232 118.865 76.1057C119.571 74.3331 120.061 71.8204 120.336 68.5677C120.635 65.0393 120.528 62.365 120.016 60.5448C119.564 58.6742 118.922 57.3983 118.091 56.7172C117.32 55.9856 116.604 55.5918 115.942 55.5358C115.53 54.5015 115.286 53.1204 115.21 51.3927C115.134 49.665 115.178 47.8363 115.342 45.9068C115.565 43.9267 115.891 42.0387 116.321 40.2427C116.755 38.3916 117.304 36.8278 117.967 35.5514C118.845 35.6811 120.271 35.8852 122.246 36.1634C124.282 36.3912 126.618 36.6723 129.255 37.0065C131.951 37.2903 134.758 37.5835 137.676 37.8859C140.593 38.1884 143.455 38.4862 146.262 38.7793C149.129 39.022 151.692 39.239 153.953 39.4303C159.741 39.9203 166.171 40.3813 173.242 40.8133C180.368 41.2499 187.443 41.6267 194.468 41.9437C194.655 43.0145 194.775 44.5516 194.827 46.555C194.88 48.5584 194.859 50.7776 194.764 53.2127C194.669 55.6478 194.516 58.1058 194.306 60.5866C194.096 63.0675 193.82 65.3485 193.477 67.4294C193.139 69.4553 192.755 71.0331 192.327 72.1628C189.707 72.2743 186.822 72.2521 183.67 72.0964C180.518 71.9406 177.321 71.67 174.077 71.2844C170.889 70.9034 167.876 70.4262 165.037 69.8528C164.595 67.2056 164.812 64.6421 165.688 62.1621L156.095 61.35L155.801 64.8233L163.492 65.4743L162.519 76.9691L154.745 76.3111L154.444 79.867L164.12 80.686C163.678 78.0389 163.897 75.4477 164.778 72.9126C169.432 73.0289 174.185 73.2924 179.037 73.7031C183.888 74.1138 188.397 74.6343 192.564 75.2646C192.645 76.2709 192.648 77.8814 192.571 80.096C192.5 82.2554 192.347 84.7134 192.114 87.4699C191.885 90.1713 191.599 92.8956 191.255 95.6428C190.967 98.3947 190.649 100.839 190.301 102.975C189.954 105.111 189.603 106.636 189.248 107.55C183.469 106.95 177.205 106.169 170.456 105.21C163.703 104.305 157.074 103.577 150.568 103.026C147.04 102.728 143.316 102.44 139.397 102.164C135.529 101.948 131.771 101.741 128.123 101.543C124.525 101.405 121.344 101.274 118.578 101.151C115.862 101.088 113.893 101.06 112.671 101.068Z" fill="url(#paint0_linear_1_10482)"/>
<path d="M145.332 5.99336C134.891 12.6816 129.895 32.8117 127.987 42.3858C133.8 25.5701 142.324 14.2759 144.787 12.4376C156.499 3.69342 166.848 11.0598 170.933 14.6508C178.014 21.7406 182.884 37.6577 183.549 47.089C185.658 22.1713 175.204 11.2722 171.479 8.20661C164.151 2.17774 151.768 1.87051 145.332 5.99336Z" fill="url(#paint1_linear_1_10482)"/>
<ellipse cx="129.389" cy="41.2032" rx="2.5935" ry="2.5935" transform="rotate(4.83841 129.389 41.2032)" fill="white"/>
<circle cx="182.366" cy="45.6875" r="2.5935" transform="rotate(4.83842 182.366 45.6875)" fill="white"/>
<path d="M92.734 55.4566C78.6664 44.1867 48.5912 49.1371 38.3748 54.0722C37.91 54.2967 37.606 54.7336 37.5181 55.2422C37.2955 56.5299 38.5736 57.5709 39.8078 57.1417C65.3911 48.2451 89.6425 56.1445 90.7819 62.4384L97.3953 111.359C97.4248 111.578 97.4347 111.784 97.4359 112.005C97.4703 118.496 103.934 143.485 129.205 143.178C131.049 143.156 132.863 142.719 134.591 142.073L207.199 114.944C207.27 114.917 207.339 114.883 207.404 114.841C208.445 114.178 207.76 112.567 206.56 112.856L132.37 130.739C116.423 134.144 108.015 117.555 105.093 108.559L96.9592 63.6247C96.3952 60.5091 95.205 57.4362 92.734 55.4566Z" fill="#9747FF"/>
<ellipse cx="149.153" cy="155.067" rx="12.0207" ry="12.0207" fill="url(#paint2_linear_1_10482)"/>
<ellipse cx="192.427" cy="139.44" rx="12.0207" ry="12.0207" fill="url(#paint3_linear_1_10482)"/>
<path d="M23.7188 152.834C22.7096 154.315 21.3477 155.104 19.6329 155.2C17.9182 155.296 16.2587 154.798 14.6545 153.705C13.5748 152.969 12.8641 152.089 12.5224 151.066C12.2067 150.037 12.1417 149.304 12.3274 148.866C12.844 148.473 13.5955 148.149 14.5818 147.895C15.5681 147.641 16.3322 147.597 16.8741 147.763C17.3139 148.808 17.274 150.441 16.7543 152.662C17.7779 153.315 18.6524 153.109 19.3778 152.044C19.7773 151.458 20.027 150.578 20.127 149.404C20.2529 148.225 20.2905 147.075 20.2398 145.957C20.1996 144.822 20.2558 143.63 20.4083 142.378C20.5868 141.122 20.9231 140.131 21.4172 139.406C22.2161 138.234 23.3173 137.629 24.7208 137.592C26.1397 137.565 27.443 137.956 28.6308 138.765C29.8185 139.575 30.5629 140.455 30.8638 141.405C31.1802 142.366 31.1176 143.171 30.6761 143.819C30.2346 144.467 29.5358 144.962 28.5796 145.304C27.6235 145.646 26.7619 145.85 25.995 145.914L24.8446 146.011C24.8615 146.384 24.8697 146.853 24.8691 147.417C24.8685 147.982 24.7765 148.879 24.5931 150.109C24.4097 151.34 24.1183 152.248 23.7188 152.834ZM27.1092 144.031C27.4619 143.977 27.8176 143.87 28.1765 143.708C28.5459 143.53 28.8358 143.287 29.046 142.979C29.2668 142.655 29.2656 142.259 29.0426 141.791C28.8196 141.322 28.4458 140.909 27.9214 140.552C27.4123 140.205 26.8963 140.034 26.3733 140.039C25.8763 140.039 25.5122 140.209 25.2809 140.548C25.0601 140.872 24.9053 141.332 24.8164 141.926C24.7534 142.516 24.73 143.031 24.7463 143.471L24.7937 144.147C25.0005 144.175 25.35 144.176 25.8421 144.15C26.3497 144.134 26.7721 144.095 27.1092 144.031Z" fill="#6F27CD"/>
<path d="M31.2787 158.357C32.4053 156.314 33.9061 155.041 35.781 154.54C37.6813 154.032 39.4161 154.211 40.9854 155.076C41.9498 155.608 42.6119 156.282 42.9717 157.098C43.3315 157.915 43.2906 158.724 42.849 159.525C42.4163 160.309 41.847 160.859 41.1409 161.173C40.4512 161.496 39.7391 161.647 39.0047 161.626C37.5287 161.558 36.2679 161.332 35.2223 160.947L34.5933 160.696C33.8605 162.296 34.0662 163.411 35.2105 164.042C35.6028 164.258 36.0737 164.39 36.6232 164.437C37.1727 164.484 37.6242 164.477 37.9775 164.416L38.5075 164.325L38.6634 165.434C38.4335 165.542 38.0412 165.635 37.4867 165.713C36.9321 165.79 36.4291 165.833 35.9777 165.84C34.7412 165.84 33.559 165.529 32.4311 164.907C31.3032 164.286 30.6331 163.394 30.4209 162.232C30.2086 161.071 30.4946 159.779 31.2787 158.357ZM35.2312 159.481C36.146 159.794 37.0018 159.807 37.7986 159.522C38.5955 159.236 39.2372 158.652 39.7239 157.77C40.2106 156.887 40.1924 156.301 39.6694 156.013C39.0482 155.67 38.273 155.936 37.3439 156.809C36.4402 157.675 35.7359 158.566 35.2312 159.481Z" fill="#6F27CD"/>
<path d="M48.5445 167.532C49.4795 165.394 50.8576 163.99 52.6788 163.32C54.5246 162.64 56.2684 162.659 57.9103 163.377C58.9193 163.818 59.6404 164.429 60.0734 165.209C60.5063 165.989 60.5396 166.798 60.1731 167.636C59.8141 168.457 59.2974 169.056 58.623 169.434C57.9657 169.819 57.2704 170.034 56.5372 170.08C55.0611 170.148 53.7849 170.038 52.7085 169.75L52.0592 169.558C51.4758 171.218 51.7827 172.31 52.9799 172.833C53.3904 173.013 53.8713 173.101 54.4229 173.098C54.9744 173.095 55.4233 173.046 55.7696 172.953L56.289 172.814L56.5457 173.904C56.3266 174.032 55.9445 174.161 55.3994 174.289C54.8543 174.417 54.3573 174.505 53.9084 174.554C52.6771 174.667 51.4714 174.466 50.2913 173.95C49.1113 173.434 48.3624 172.607 48.0448 171.47C47.7272 170.333 47.8938 169.02 48.5445 167.532ZM52.5833 168.29C53.5228 168.517 54.3763 168.453 55.1437 168.095C55.9111 167.738 56.4967 167.098 56.9006 166.175C57.3045 165.251 57.2328 164.67 56.6855 164.43C56.0356 164.146 55.288 164.481 54.4427 165.436C53.6219 166.381 53.0021 167.332 52.5833 168.29Z" fill="#6F27CD"/>
<path d="M73.7948 163.154C73.9843 162.568 74.0659 162.133 74.0397 161.85C75.5801 161.818 76.9631 162 78.1887 162.396C78.2969 162.608 78.2448 163.042 78.0324 163.699C77.556 165.174 76.1548 167.84 73.829 171.698C75.8288 170.913 77.6014 170.769 79.1467 171.269C79.8395 171.493 80.3567 171.895 80.6985 172.477C81.0404 173.058 81.0792 173.757 80.8152 174.574C80.3215 176.102 78.7105 176.807 75.9822 176.69C75.9714 178.727 76.0818 180.146 76.3135 180.947C76.417 181.294 76.5132 181.482 76.602 181.511C76.7974 181.574 77.2547 181.555 77.974 181.454L78.3101 181.415L78.4436 182.459C77.8911 182.712 77.1669 182.919 76.2711 183.081C75.3988 183.231 74.6518 183.205 74.0301 183.004C72.6447 182.556 72.0842 180.982 72.3487 178.282C72.4501 177.118 72.6264 176.057 72.8773 175.098C74.1002 175.199 75.0472 175.152 75.7184 174.957C76.4131 174.75 76.8551 174.354 77.0445 173.767C77.2397 173.164 77.0353 172.764 76.4314 172.569C75.8275 172.374 74.6199 172.65 72.8086 173.399C70.7093 176.86 69.4358 179.283 68.988 180.668C67.9193 180.637 66.6034 180.369 65.0403 179.863C65.1201 179.556 65.1973 179.286 65.272 179.056C65.5188 178.292 66.8688 175.844 69.322 171.713C71.793 167.588 73.284 164.735 73.7948 163.154Z" fill="#6F27CD"/>
<path d="M106.735 190.656C105.016 190.409 103.693 189.512 102.765 187.964C101.84 186.398 101.54 184.487 101.864 182.233C102.188 179.979 102.871 177.984 103.913 176.248C104.957 174.493 106.283 173.138 107.892 172.181C109.501 171.224 111.118 170.863 112.744 171.096C114.388 171.333 115.656 171.892 116.548 172.775C117.458 173.66 117.838 174.62 117.689 175.655C117.543 176.671 117.113 177.496 116.4 178.128C115.809 178.043 115.162 177.818 114.46 177.453C113.759 177.089 113.249 176.695 112.933 176.272L113.862 173.549C113.459 173.208 112.896 172.985 112.176 172.882C111.049 172.72 109.912 173.546 108.764 175.361C107.619 177.158 106.844 179.47 106.437 182.297C106.169 184.163 106.279 185.565 106.766 186.502C107.275 187.424 107.973 187.949 108.859 188.076C110.319 188.286 111.822 187.805 113.367 186.631L114.356 187.82C114.11 188.087 113.682 188.44 113.072 188.88C112.462 189.32 111.873 189.679 111.305 189.956C110.74 190.214 110.04 190.424 109.206 190.587C108.371 190.75 107.548 190.773 106.735 190.656Z" fill="#A0CD27"/>
<path d="M128.708 192.912C127.421 192.86 126.432 192.372 125.74 191.447C125.05 190.504 124.737 189.221 124.803 187.598C124.887 185.528 125.509 183.769 126.67 182.321C127.849 180.874 129.418 180.191 131.377 180.27L132.381 180.367C132.705 180.211 133.063 180.142 133.455 180.158C134.928 180.217 135.609 181.637 135.496 184.416C136.263 184.409 137.041 184.338 137.831 184.202L138.283 184.108L138.407 185.206C137.781 185.442 136.941 185.642 135.889 185.805L135.325 185.894C134.891 187.838 134.104 189.516 132.963 190.927C131.823 192.319 130.405 192.981 128.708 192.912ZM130.316 190.567C131.099 190.599 131.819 190.124 132.475 189.141C133.15 188.16 133.631 187.115 133.919 186.005C131.923 185.925 130.956 185.138 131.016 183.646C131.04 183.049 131.184 182.495 131.447 181.982L131.599 181.708C131.526 181.668 131.433 181.645 131.321 181.641C131.209 181.636 131.125 181.651 131.067 181.686C130.589 181.966 130.122 182.648 129.667 183.732C129.212 184.815 128.956 186.066 128.899 187.484C128.818 189.498 129.29 190.526 130.316 190.567Z" fill="#A0CD27"/>
<path d="M145.452 193.148L144.922 193.188C144.855 192.313 144.989 190.618 145.323 188.103C145.676 185.587 145.84 184.161 145.814 183.826C145.768 183.212 145.458 182.58 144.885 181.931L144.608 181.615L144.609 181.25C145.593 180.894 147.192 180.633 149.407 180.466C149.695 180.8 149.869 181.367 149.929 182.167C151.51 180.793 152.794 180.069 153.78 179.995C155.027 179.9 155.811 180.487 156.132 181.754C156.603 181.307 157.223 180.839 157.991 180.35C158.776 179.842 159.485 179.563 160.118 179.516C160.77 179.466 161.326 179.64 161.786 180.035C162.245 180.412 162.503 180.973 162.559 181.718C162.615 182.462 162.504 183.706 162.223 185.45C161.943 187.193 161.826 188.363 161.871 188.958C161.915 189.535 162.02 189.818 162.188 189.805C162.299 189.796 162.668 189.591 163.292 189.188L163.587 188.997L164.163 189.936C163.716 190.457 163.09 190.972 162.286 191.482C161.5 191.972 160.79 192.241 160.157 192.289C158.761 192.394 158.003 191.656 157.884 190.074C157.84 189.497 157.948 188.328 158.208 186.568C158.486 184.787 158.604 183.636 158.565 183.115C158.524 182.575 158.346 182.317 158.029 182.341C157.489 182.382 156.891 182.633 156.233 183.095C156.224 183.47 156.059 184.755 155.738 186.951C155.436 189.145 155.33 190.838 155.42 192.029C154.899 192.312 153.642 192.529 151.65 192.679C151.598 192.477 151.542 191.986 151.483 191.204C151.424 190.422 151.537 189.075 151.823 187.163C152.128 185.249 152.261 184.041 152.223 183.538C152.185 183.036 151.989 182.798 151.635 182.824C151.077 182.867 150.48 183.136 149.843 183.634C149.819 183.804 149.695 184.637 149.471 186.133C149.023 189.125 148.846 191.244 148.94 192.491C148.309 192.801 147.146 193.02 145.452 193.148Z" fill="#A0CD27"/>
<path d="M175.919 190.243L175.399 190.357C175.211 189.5 175.107 187.803 175.087 185.266C175.084 182.725 175.047 181.29 174.976 180.962C174.844 180.361 174.449 179.778 173.79 179.215L173.472 178.941L173.422 178.579C174.347 178.09 175.894 177.608 178.064 177.133C178.395 177.424 178.646 177.961 178.818 178.745C180.192 177.164 181.362 176.268 182.328 176.056C183.55 175.788 184.408 176.26 184.902 177.47C185.307 176.961 185.855 176.411 186.547 175.82C187.254 175.207 187.917 174.832 188.537 174.696C189.175 174.557 189.75 174.651 190.261 174.978C190.769 175.287 191.102 175.807 191.262 176.536C191.421 177.266 191.484 178.513 191.451 180.278C191.417 182.044 191.464 183.218 191.591 183.802C191.715 184.367 191.859 184.632 192.023 184.596C192.133 184.572 192.469 184.317 193.031 183.831L193.296 183.601L193.998 184.45C193.628 185.028 193.08 185.626 192.355 186.243C191.645 186.838 190.98 187.203 190.36 187.339C188.992 187.639 188.139 187.013 187.799 185.463C187.675 184.898 187.619 183.726 187.631 181.946C187.657 180.144 187.614 178.988 187.502 178.477C187.386 177.949 187.173 177.718 186.863 177.786C186.334 177.902 185.777 178.234 185.19 178.783C185.233 179.156 185.249 180.452 185.238 182.671C185.246 184.886 185.377 186.577 185.633 187.744C185.156 188.096 183.942 188.487 181.991 188.914C181.91 188.721 181.786 188.242 181.619 187.476C181.451 186.71 181.375 185.361 181.391 183.427C181.426 181.489 181.389 180.275 181.281 179.782C181.173 179.29 180.946 179.082 180.6 179.157C180.053 179.277 179.499 179.628 178.938 180.209C178.938 180.381 178.931 181.224 178.918 182.736C178.893 185.761 179.014 187.884 179.281 189.106C178.699 189.501 177.578 189.88 175.919 190.243Z" fill="#A0CD27"/>
<path d="M203.296 178.506C202.537 176.3 202.6 174.334 203.487 172.607C204.385 170.857 205.681 169.69 207.376 169.107C208.417 168.749 209.361 168.71 210.208 168.991C211.055 169.272 211.627 169.845 211.925 170.71C212.216 171.558 212.242 172.348 212.001 173.083C211.778 173.811 211.412 174.44 210.904 174.97C209.863 176.02 208.849 176.803 207.863 177.32L207.254 177.618C207.949 179.235 208.914 179.83 210.15 179.405C210.573 179.259 210.987 178.999 211.391 178.623C211.794 178.247 212.092 177.908 212.284 177.605L212.572 177.15L213.499 177.779C213.424 178.022 213.23 178.375 212.916 178.838C212.601 179.302 212.295 179.703 211.998 180.043C211.168 180.96 210.145 181.628 208.927 182.047C207.709 182.466 206.598 182.365 205.594 181.743C204.591 181.121 203.825 180.042 203.296 178.506ZM206.782 176.33C207.627 175.861 208.211 175.236 208.534 174.453C208.857 173.671 208.855 172.803 208.527 171.85C208.199 170.897 207.752 170.518 207.188 170.712C206.517 170.943 206.194 171.696 206.218 172.97C206.253 174.222 206.441 175.341 206.782 176.33Z" fill="#A0CD27"/>
<path d="M224.325 176.058L224.146 176.138C224.051 176.017 223.897 175.718 223.684 175.241C223.463 174.747 223.106 173.332 222.614 170.996C222.122 168.66 221.808 167.339 221.671 167.032C221.434 166.504 220.937 166.031 220.178 165.614L219.811 165.41L219.688 165.066C220.494 164.399 221.911 163.612 223.939 162.706C224.341 163.058 224.721 163.634 225.079 164.435C225.13 164.044 225.339 163.46 225.707 162.682C226.075 161.904 226.574 161.374 227.205 161.093C228.125 160.681 228.943 161.277 229.659 162.878C229.62 163.019 229.561 163.208 229.484 163.447C229.416 163.662 229.226 164.013 228.912 164.501C228.615 164.981 228.278 165.346 227.899 165.597C227.882 165.605 227.635 165.44 227.156 165.101C226.678 164.763 226.371 164.624 226.234 164.685C225.877 165.029 225.616 165.452 225.452 165.955C226.245 169.833 226.874 172.292 227.339 173.331C227.506 173.706 227.633 173.967 227.719 174.112C227.229 174.618 226.098 175.266 224.325 176.058Z" fill="#A0CD27"/>
<path d="M241.084 155.519C240.432 155.883 240.216 156.72 240.434 158.03C240.644 159.324 241.094 160.591 241.786 161.829C242.878 163.785 244.027 164.426 245.233 163.753C245.624 163.534 245.99 163.212 246.33 162.787C246.661 162.346 246.906 161.963 247.067 161.638L247.27 161.14L248.255 161.584C248.225 161.836 248.096 162.218 247.869 162.73C247.642 163.241 247.412 163.691 247.178 164.077C246.945 164.464 246.605 164.889 246.159 165.352C245.712 165.816 245.228 166.193 244.706 166.484C243.435 167.194 242.249 167.311 241.15 166.835C240.05 166.358 239.109 165.419 238.326 164.018C237.243 162.078 236.894 160.21 237.28 158.412C237.683 156.606 238.723 155.234 240.402 154.296C241.494 153.686 242.498 153.457 243.416 153.607C244.341 153.732 245.008 154.161 245.418 154.894C245.818 155.612 245.936 156.358 245.771 157.135C245.363 157.362 244.841 157.536 244.203 157.657C243.565 157.779 243.035 157.786 242.612 157.68L241.777 155.324C241.576 155.308 241.345 155.373 241.084 155.519Z" fill="#A0CD27"/>
<path d="M255.289 154.296C253.969 152.372 253.507 150.459 253.902 148.559C254.302 146.633 255.241 145.164 256.719 144.151C257.627 143.528 258.527 143.239 259.418 143.285C260.309 143.33 261.014 143.73 261.531 144.485C262.037 145.224 262.272 145.979 262.236 146.751C262.214 147.512 262.029 148.216 261.68 148.863C260.957 150.151 260.188 151.176 259.374 151.937L258.868 152.386C259.968 153.76 261.056 154.077 262.134 153.338C262.504 153.085 262.833 152.723 263.122 152.254C263.411 151.784 263.608 151.378 263.712 151.035L263.869 150.52L264.929 150.879C264.922 151.133 264.829 151.525 264.649 152.055C264.47 152.586 264.282 153.054 264.085 153.461C263.53 154.565 262.721 155.482 261.659 156.21C260.596 156.938 259.498 157.136 258.365 156.804C257.232 156.472 256.207 155.636 255.289 154.296ZM258.069 151.27C258.759 150.594 259.156 149.835 259.259 148.995C259.362 148.155 259.129 147.319 258.559 146.488C257.989 145.656 257.457 145.409 256.965 145.747C256.38 146.148 256.268 146.96 256.631 148.182C256.999 149.379 257.478 150.408 258.069 151.27Z" fill="#A0CD27"/>
<defs>
<linearGradient id="paint0_linear_1_10482" x1="156.097" y1="38.6957" x2="150.546" y2="104.274" gradientUnits="userSpaceOnUse">
<stop stop-color="#9747FF"/>
<stop offset="1" stop-color="#AAD238"/>
</linearGradient>
<linearGradient id="paint1_linear_1_10482" x1="159.268" y1="3.3893" x2="155.768" y2="44.7374" gradientUnits="userSpaceOnUse">
<stop stop-color="#9747FF"/>
<stop offset="1" stop-color="#AAD238"/>
</linearGradient>
<linearGradient id="paint2_linear_1_10482" x1="149.153" y1="143.046" x2="149.153" y2="167.088" gradientUnits="userSpaceOnUse">
<stop stop-color="#9747FF"/>
<stop offset="1" stop-color="#AAD238"/>
</linearGradient>
<linearGradient id="paint3_linear_1_10482" x1="192.427" y1="127.419" x2="192.427" y2="151.461" gradientUnits="userSpaceOnUse">
<stop stop-color="#9747FF"/>
<stop offset="1" stop-color="#AAD238"/>
</linearGradient>
</defs>
</svg>
